<?xml version="1.0" encoding="UTF-8" standalone="no"?>
<!-- Created with Inkscape (http://www.inkscape.org/) -->

<svg
   width="121.88096mm"
   height="135.31007mm"
   viewBox="0 0 121.88096 135.31007"
   version="1.1"
   id="svg1"
   xml:space="preserve"
   inkscape:version="1.4.2 (ebf0e940d0, 2025-05-08)"
   sodipodi:docname="logo.svg"
   inkscape:export-filename="logo.png"
   inkscape:export-xdpi="96"
   inkscape:export-ydpi="96"
   xmlns:inkscape="http://www.inkscape.org/namespaces/inkscape"
   xmlns:sodipodi="http://sodipodi.sourceforge.net/DTD/sodipodi-0.dtd"
   xmlns:xlink="http://www.w3.org/1999/xlink"
   xmlns="http://www.w3.org/2000/svg"
   xmlns:svg="http://www.w3.org/2000/svg"><sodipodi:namedview
     id="namedview1"
     pagecolor="#ffffff"
     bordercolor="#000000"
     borderopacity="0.25"
     inkscape:showpageshadow="2"
     inkscape:pageopacity="0.0"
     inkscape:pagecheckerboard="0"
     inkscape:deskcolor="#d1d1d1"
     inkscape:document-units="mm"
     inkscape:zoom="1.0078851"
     inkscape:cx="194.9627"
     inkscape:cy="721.31239"
     inkscape:window-width="1920"
     inkscape:window-height="1009"
     inkscape:window-x="0"
     inkscape:window-y="0"
     inkscape:window-maximized="1"
     inkscape:current-layer="layer1"><inkscape:page
       x="-4.2619293e-14"
       y="0"
       width="121.88097"
       height="135.31007"
       id="page2"
       margin="0"
       bleed="0" /></sodipodi:namedview><defs
     id="defs1"><linearGradient
       id="swatch11"
       inkscape:swatch="solid"><stop
         style="stop-color:#000000;stop-opacity:1;"
         offset="0"
         id="stop11" /></linearGradient><linearGradient
       id="swatch7"
       inkscape:swatch="solid"><stop
         style="stop-color:#00a499;stop-opacity:1;"
         offset="0"
         id="stop7" /></linearGradient><linearGradient
       id="swatch6"
       inkscape:swatch="solid"><stop
         style="stop-color:#00a499;stop-opacity:1;"
         offset="0"
         id="stop6" /></linearGradient><linearGradient
       id="swatch5"
       inkscape:swatch="solid"><stop
         style="stop-color:#00a499;stop-opacity:1;"
         offset="0"
         id="stop5" /></linearGradient><linearGradient
       id="swatch4"
       inkscape:swatch="solid"><stop
         style="stop-color:#00a499;stop-opacity:1;"
         offset="0"
         id="stop4" /></linearGradient><linearGradient
       id="swatch3"
       inkscape:swatch="solid"><stop
         style="stop-color:#00a499;stop-opacity:1;"
         offset="0"
         id="stop3" /></linearGradient><linearGradient
       id="swatch2"
       inkscape:swatch="solid"><stop
         style="stop-color:#00a499;stop-opacity:1;"
         offset="0"
         id="stop2" /></linearGradient><linearGradient
       id="swatch1"
       inkscape:swatch="solid"><stop
         style="stop-color:#02c3de;stop-opacity:1;"
         offset="0"
         id="stop1" /></linearGradient><linearGradient
       inkscape:collect="always"
       xlink:href="#swatch2"
       id="linearGradient1"
       x1="62.09156"
       y1="83.252808"
       x2="160.10156"
       y2="83.252808"
       gradientUnits="userSpaceOnUse" /><linearGradient
       inkscape:collect="always"
       xlink:href="#swatch2"
       id="linearGradient2"
       x1="57.543751"
       y1="44.010529"
       x2="57.880196"
       y2="44.010529"
       gradientUnits="userSpaceOnUse" /><linearGradient
       inkscape:collect="always"
       xlink:href="#swatch2"
       id="linearGradient3"
       x1="43.250626"
       y1="94.645546"
       x2="106.45594"
       y2="94.645546"
       gradientUnits="userSpaceOnUse" /><linearGradient
       inkscape:collect="always"
       xlink:href="#swatch2"
       id="linearGradient4"
       x1="69.238121"
       y1="54.480938"
       x2="148.31438"
       y2="54.480938"
       gradientUnits="userSpaceOnUse" /><linearGradient
       inkscape:collect="always"
       xlink:href="#swatch2"
       id="linearGradient5"
       x1="116.16218"
       y1="96.309593"
       x2="141.16658"
       y2="96.309593"
       gradientUnits="userSpaceOnUse" /><linearGradient
       inkscape:collect="always"
       xlink:href="#swatch2"
       id="linearGradient7"
       x1="131.05125"
       y1="96.873039"
       x2="137.75694"
       y2="96.873039"
       gradientUnits="userSpaceOnUse" /><linearGradient
       inkscape:collect="always"
       xlink:href="#swatch1"
       id="linearGradient10"
       gradientUnits="userSpaceOnUse"
       x1="62.09156"
       y1="83.252808"
       x2="160.10156"
       y2="83.252808" /><linearGradient
       inkscape:collect="always"
       xlink:href="#swatch1"
       id="linearGradient11"
       x1="117.21223"
       y1="93.126625"
       x2="136.63821"
       y2="93.126625"
       gradientUnits="userSpaceOnUse" /></defs><g
     inkscape:label="Layer 1"
     inkscape:groupmode="layer"
     id="layer1"
     transform="translate(-41.674997,-15.195818)"><path
       style="fill:#02c3de;fill-opacity:1;fill-rule:nonzero;stroke:url(#linearGradient11);stroke-width:6.165;stroke-linecap:round;stroke-linejoin:round;stroke-dasharray:none"
       d="m 117.99977,82.166692 -0.78754,10.23802 11.28807,11.681848 7.21912,-14.175723 -9.08317,-1.665912 z"
       id="path11"
       sodipodi:nodetypes="cccccc" /><path
       style="fill:none;stroke:url(#linearGradient10);stroke-width:4.265;stroke-linecap:round;stroke-linejoin:round;stroke-dasharray:none"
       d="m 85.109062,131.32968 c 0,0 6.57263,4.90248 10.313446,17.04372 l 52.225782,-0.26524 c -6.36595,-10.36928 -9.15659,-19.60256 -9.4191,-31.21878 -1.1967,-17.252737 14.59124,-31.439149 16.06123,-36.69938 0.81973,-2.933329 4.99048,-9.707805 1.57781,-28.214999 0,0 -2.45952,-13.823503 -13.48701,-22.314412 -8.49847,-7.46804 -17.47466,-11.776544 -26.05258,-12.283098 -10.13958,-0.426584 -28.070207,2.06001 -40.319867,6.732204 C 66.67427,28.134054 62.205928,36.15843 62.205928,36.15843"
       id="path10"
       sodipodi:nodetypes="ccccsccccc" /><path
       style="fill:none;stroke:url(#linearGradient1);stroke-width:4.265;stroke-linecap:round;stroke-linejoin:round;stroke-dasharray:none"
       d="m 85.109062,131.32968 c 0,0 6.57263,4.90248 10.313446,17.04372 l 56.459112,-0.26524 c -6.36595,-10.36928 -9.15659,-19.60256 -9.4191,-31.21878 -1.1967,-17.252737 14.59124,-31.439149 16.06123,-36.69938 0.81973,-2.933329 4.99048,-9.707805 1.57781,-28.214999 0,0 -2.4041,-13.684284 -14.54534,-22.314412 C 135.71197,22.146143 124.4425,17.605607 116.32864,17.377491 106.18906,16.950907 88.258433,19.437501 76.008773,24.109695 66.67427,28.134054 62.205928,36.15843 62.205928,36.15843"
       id="path1"
       sodipodi:nodetypes="ccccsccccc" /><path
       style="fill:none;stroke:url(#linearGradient2);stroke-width:4.265;stroke-linecap:round;stroke-linejoin:round;stroke-dasharray:none"
       d="m 58.123828,44.155546 -1e-6,-0.0116"
       id="path2"
       sodipodi:nodetypes="cc" /><path
       style="fill:none;stroke:url(#linearGradient3);stroke-width:4.265;stroke-linecap:round;stroke-linejoin:round;stroke-dasharray:none"
       d="m 55.687499,52.717498 c 0,0 -3.828516,9.020529 -3.828516,10.789454 -0.494897,1.846981 5.429531,5.429532 5.313515,8.051485 -0.295131,1.735369 -3.305711,7.536647 -6.821093,12.808487 -3.394083,5.089936 -6.449181,7.598844 -6.543905,10.325029 0.06398,1.32222 1.933259,3.113565 4.527085,4.174478 2.610797,1.067856 3.96526,2.995289 4.034869,3.946609 0.04641,2.99321 -2.59875,5.66157 -2.575547,7.30899 0.06961,1.09055 2.668358,2.59875 3.689295,3.55008 -0.278437,0.78891 -1.438594,1.32257 -1.252969,3.45726 0.162422,1.4618 3.002799,1.46949 4.710235,4.47821 0,1.31373 0.250764,2.00425 -0.02366,3.13367 -1.205978,4.96335 -0.879264,9.71266 4.733892,12.41242 11.555157,-1.32258 36.707343,-11.18391 39.79336,-12.73852 5.66156,-3.36445 4.89586,-7.70343 4.89586,-7.70343"
       id="path3"
       sodipodi:nodetypes="cccscscccccsccc" /><path
       style="fill:#02c3de;fill-opacity:1;stroke:url(#linearGradient4);stroke-width:4.265;stroke-linecap:round;stroke-linejoin:round;stroke-dasharray:none"
       d="m 66.809875,46.74212 c 4.00333,-8.269171 5.019955,-9.49599 11.21757,-13.449616 12.272501,-5.906551 31.653725,-6.748129 31.653725,-6.748129 4.72524,-0.459398 7.35426,0.08622 11.1607,0.742501 9.71203,2.381314 17.5839,7.525098 22.83059,12.800465 2.12777,2.139401 6.12077,6.925578 7.13579,12.148573 3.74081,18.769708 -0.18369,24.788801 -4.18702,30.235954 -6.30032,6.628463 -16.79355,4.251068 -16.79355,4.251068 -11.61622,-2.822019 -16.4761,-13.442238 -24.08899,-15.411089 -11.484961,-3.018904 -25.845476,3.099542 -34.194245,0.862496 -7.446866,-2.728887 -9.6603,-11.930777 -4.73457,-25.432223 z"
       id="path4"
       sodipodi:nodetypes="ccccscccccc" /><path
       style="fill:none;fill-opacity:0.13198;stroke:url(#linearGradient5);stroke-width:4.265;stroke-linecap:round;stroke-linejoin:round;stroke-dasharray:none"
       d="m 117.34348,80.394726 c 0,0 -1.9238,6.968996 -0.99567,10.983137 0.69609,3.225235 1.91709,5.438508 6.07045,8.57093 6.91453,4.849457 7.1586,9.309657 7.41383,12.302857 3.80532,-2.69156 4.25596,-6.94317 4.51119,-10.1452 0.0928,-3.782114 0.69572,-5.582327 1.18927,-6.835926 0.83175,-2.112648 4.6363,-7.862777 8.60403,-10.739964"
       id="path5"
       sodipodi:nodetypes="cccccsc" /><path
       style="fill:none;fill-opacity:0.13198;stroke:url(#linearGradient7);stroke-width:6.165;stroke-linecap:round;stroke-linejoin:round;stroke-dasharray:none"
       d="m 130.61039,105.59742 c -0.11602,-4.29258 -0.30165,-5.615154 0.85851,-8.817185 1.29938,-3.225235 3.96774,-6.334454 6.28805,-8.886798"
       id="path6"
       sodipodi:nodetypes="ccc" /><text
       xml:space="preserve"
       style="font-size:18.3548px;text-align:start;writing-mode:lr-tb;direction:ltr;text-anchor:start;fill:#00a499;fill-opacity:1;fill-rule:nonzero;stroke:none;stroke-width:35.6402;stroke-linecap:round;stroke-linejoin:round;stroke-dasharray:none;stroke-opacity:1"
       x="82.911697"
       y="49.022606"
       id="text11"><tspan
         sodipodi:role="line"
         id="tspan11"
         style="fill:#00a499;fill-opacity:1;stroke:none;stroke-width:35.6402;stroke-opacity:1"
         x="82.911697"
         y="49.022606">∨</tspan></text><text
       xml:space="preserve"
       style="font-size:18.1245px;text-align:start;writing-mode:lr-tb;direction:ltr;text-anchor:start;fill:#00a499;fill-opacity:1;fill-rule:nonzero;stroke:none;stroke-width:35.1929;stroke-linecap:round;stroke-linejoin:round;stroke-dasharray:none;stroke-opacity:1"
       x="70.657867"
       y="65.362991"
       id="text12"><tspan
         sodipodi:role="line"
         id="tspan12"
         style="stroke-width:35.1929"
         x="70.657867"
         y="65.362991">∧</tspan></text><text
       xml:space="preserve"
       style="font-size:17.1626px;text-align:start;writing-mode:lr-tb;direction:ltr;text-anchor:start;fill:#00a499;fill-opacity:1;fill-rule:nonzero;stroke:none;stroke-width:33.3252;stroke-linecap:round;stroke-linejoin:round;stroke-dasharray:none;stroke-opacity:1"
       x="105.78133"
       y="46.124424"
       id="text13"><tspan
         sodipodi:role="line"
         id="tspan13"
         style="stroke-width:33.3252"
         x="105.78133"
         y="46.124424">⇒</tspan></text><text
       xml:space="preserve"
       style="font-size:21.1127px;text-align:start;writing-mode:lr-tb;direction:ltr;text-anchor:start;fill:#00a499;fill-opacity:1;fill-rule:nonzero;stroke:none;stroke-width:40.9951;stroke-linecap:round;stroke-linejoin:round;stroke-dasharray:none;stroke-opacity:1"
       x="97.661766"
       y="64.743477"
       id="text14"><tspan
         sodipodi:role="line"
         id="tspan14"
         style="stroke-width:40.9951"
         x="97.661766"
         y="64.743477">¬</tspan></text><text
       xml:space="preserve"
       style="font-size:15.0583px;text-align:start;writing-mode:lr-tb;direction:ltr;text-anchor:start;fill:#00a499;fill-opacity:1;fill-rule:nonzero;stroke:none;stroke-width:29.239;stroke-linecap:round;stroke-linejoin:round;stroke-dasharray:none;stroke-opacity:1"
       x="117.6133"
       y="72.059929"
       id="text15"><tspan
         sodipodi:role="line"
         id="tspan15"
         style="stroke-width:29.239"
         x="117.6133"
         y="72.059929">∀</tspan></text><text
       xml:space="preserve"
       style="font-size:15.4041px;text-align:start;writing-mode:lr-tb;direction:ltr;text-anchor:start;fill:#00a499;fill-opacity:1;fill-rule:nonzero;stroke:none;stroke-width:29.9107;stroke-linecap:round;stroke-linejoin:round;stroke-dasharray:none;stroke-opacity:1"
       x="131.25325"
       y="78.355057"
       id="text16"><tspan
         sodipodi:role="line"
         id="tspan16"
         style="stroke-width:29.9107"
         x="131.25325"
         y="78.355057">∃</tspan></text><text
       xml:space="preserve"
       style="font-size:14.0475px;text-align:start;writing-mode:lr-tb;direction:ltr;text-anchor:start;fill:#00a499;fill-opacity:1;fill-rule:nonzero;stroke:none;stroke-width:27.2765;stroke-linecap:round;stroke-linejoin:round;stroke-dasharray:none;stroke-opacity:1"
       x="121.27094"
       y="53.68399"
       id="text17"><tspan
         sodipodi:role="line"
         id="tspan17"
         style="stroke-width:27.2765"
         x="121.27094"
         y="53.68399">⊤</tspan></text><text
       xml:space="preserve"
       style="font-size:12.9228px;text-align:start;writing-mode:lr-tb;direction:ltr;text-anchor:start;fill:#00a499;fill-opacity:1;fill-rule:nonzero;stroke:none;stroke-width:25.0926;stroke-linecap:round;stroke-linejoin:round;stroke-dasharray:none;stroke-opacity:1"
       x="132.91762"
       y="60.378078"
       id="text18"><tspan
         sodipodi:role="line"
         id="tspan18"
         style="stroke-width:25.0926"
         x="132.91762"
         y="60.378078">⊥</tspan></text></g></svg>
